<mxfile host="Electron" agent="Mozilla/5.0 (Macintosh; Intel Mac OS X 10_15_7) AppleWebKit/537.36 (KHTML, like Gecko) draw.io/26.0.4 Chrome/128.0.6613.186 Electron/32.2.5 Safari/537.36" version="26.0.4">
  <diagram name="Page-1" id="G7hLmfwOPTBnFlMKxoG6">
    <mxGraphModel dx="1114" dy="772" grid="1" gridSize="10" guides="1" tooltips="1" connect="1" arrows="1" fold="1" page="1" pageScale="1" pageWidth="850" pageHeight="1100" math="0" shadow="0">
      <root>
        <mxCell id="0" />
        <mxCell id="1" parent="0" />
        <mxCell id="EBf3UP8crloSJ7-SWJ4h-42" value="" style="rounded=0;whiteSpace=wrap;html=1;strokeColor=none;" parent="1" vertex="1">
          <mxGeometry y="75" width="1270" height="285" as="geometry" />
        </mxCell>
        <mxCell id="EBf3UP8crloSJ7-SWJ4h-5" value="" style="edgeStyle=orthogonalEdgeStyle;rounded=0;orthogonalLoop=1;jettySize=auto;html=1;" parent="1" source="EBf3UP8crloSJ7-SWJ4h-2" target="EBf3UP8crloSJ7-SWJ4h-3" edge="1">
          <mxGeometry relative="1" as="geometry" />
        </mxCell>
        <mxCell id="EBf3UP8crloSJ7-SWJ4h-2" value="&lt;font style=&quot;font-size: 17px;&quot;&gt;CSV File&lt;/font&gt;&lt;div&gt;&lt;font style=&quot;font-size: 17px;&quot;&gt;with news&lt;/font&gt;&lt;/div&gt;" style="shape=internalStorage;whiteSpace=wrap;html=1;backgroundOutline=1;strokeWidth=2;" parent="1" vertex="1">
          <mxGeometry x="40" y="150" width="150" height="90" as="geometry" />
        </mxCell>
        <mxCell id="EBf3UP8crloSJ7-SWJ4h-6" value="" style="edgeStyle=orthogonalEdgeStyle;rounded=0;orthogonalLoop=1;jettySize=auto;html=1;" parent="1" source="EBf3UP8crloSJ7-SWJ4h-3" target="EBf3UP8crloSJ7-SWJ4h-4" edge="1">
          <mxGeometry relative="1" as="geometry" />
        </mxCell>
        <mxCell id="EBf3UP8crloSJ7-SWJ4h-3" value="&lt;font style=&quot;font-size: 14px;&quot;&gt;Transform each record into Haystack Document objects&lt;/font&gt;" style="rounded=1;whiteSpace=wrap;html=1;strokeWidth=2;" parent="1" vertex="1">
          <mxGeometry x="215.25" y="152.5" width="170" height="85" as="geometry" />
        </mxCell>
        <mxCell id="EBf3UP8crloSJ7-SWJ4h-8" value="" style="edgeStyle=orthogonalEdgeStyle;rounded=0;orthogonalLoop=1;jettySize=auto;html=1;" parent="1" source="EBf3UP8crloSJ7-SWJ4h-4" target="EBf3UP8crloSJ7-SWJ4h-7" edge="1">
          <mxGeometry relative="1" as="geometry" />
        </mxCell>
        <mxCell id="EBf3UP8crloSJ7-SWJ4h-4" value="" style="html=1;verticalLabelPosition=bottom;align=center;labelBackgroundColor=#ffffff;verticalAlign=top;strokeWidth=2;strokeColor=#000000;shadow=0;dashed=0;shape=mxgraph.ios7.icons.documents;" parent="1" vertex="1">
          <mxGeometry x="410" y="152.5" width="77" height="85" as="geometry" />
        </mxCell>
        <mxCell id="EBf3UP8crloSJ7-SWJ4h-10" value="" style="edgeStyle=orthogonalEdgeStyle;rounded=0;orthogonalLoop=1;jettySize=auto;html=1;" parent="1" source="EBf3UP8crloSJ7-SWJ4h-7" target="EBf3UP8crloSJ7-SWJ4h-9" edge="1">
          <mxGeometry relative="1" as="geometry" />
        </mxCell>
        <mxCell id="EBf3UP8crloSJ7-SWJ4h-7" value="&lt;div&gt;&lt;font style=&quot;font-size: 14px;&quot;&gt;&lt;br&gt;&lt;/font&gt;&lt;/div&gt;&lt;font style=&quot;font-size: 14px;&quot;&gt;Clean documents (remove line breaks)&lt;/font&gt;" style="rounded=1;whiteSpace=wrap;html=1;verticalAlign=top;strokeColor=#000000;labelBackgroundColor=#ffffff;strokeWidth=2;shadow=0;dashed=0;" parent="1" vertex="1">
          <mxGeometry x="520" y="157.5" width="160" height="75" as="geometry" />
        </mxCell>
        <mxCell id="EBf3UP8crloSJ7-SWJ4h-12" value="" style="edgeStyle=orthogonalEdgeStyle;rounded=0;orthogonalLoop=1;jettySize=auto;html=1;" parent="1" source="EBf3UP8crloSJ7-SWJ4h-9" target="EBf3UP8crloSJ7-SWJ4h-11" edge="1">
          <mxGeometry relative="1" as="geometry" />
        </mxCell>
        <mxCell id="EBf3UP8crloSJ7-SWJ4h-9" value="&lt;div&gt;&lt;font style=&quot;font-size: 14px;&quot;&gt;&lt;br&gt;&lt;/font&gt;&lt;/div&gt;&lt;font style=&quot;font-size: 14px;&quot;&gt;Embed documents into vectors&lt;/font&gt;" style="whiteSpace=wrap;html=1;verticalAlign=top;strokeColor=#000000;rounded=1;labelBackgroundColor=#ffffff;strokeWidth=2;shadow=0;dashed=0;" parent="1" vertex="1">
          <mxGeometry x="710" y="157.5" width="140" height="75" as="geometry" />
        </mxCell>
        <mxCell id="EBf3UP8crloSJ7-SWJ4h-13" value="" style="edgeStyle=orthogonalEdgeStyle;rounded=0;orthogonalLoop=1;jettySize=auto;html=1;" parent="1" source="EBf3UP8crloSJ7-SWJ4h-11" target="EBf3UP8crloSJ7-SWJ4h-1" edge="1">
          <mxGeometry relative="1" as="geometry" />
        </mxCell>
        <mxCell id="EBf3UP8crloSJ7-SWJ4h-11" value="&lt;div&gt;&lt;font style=&quot;font-size: 14px;&quot;&gt;&lt;br&gt;&lt;/font&gt;&lt;/div&gt;&lt;font style=&quot;font-size: 14px;&quot;&gt;Write embedded documents&lt;/font&gt;" style="whiteSpace=wrap;html=1;verticalAlign=top;strokeColor=#000000;rounded=1;labelBackgroundColor=#ffffff;strokeWidth=2;shadow=0;dashed=0;" parent="1" vertex="1">
          <mxGeometry x="880" y="157.5" width="140" height="75" as="geometry" />
        </mxCell>
        <mxCell id="EBf3UP8crloSJ7-SWJ4h-14" value="&lt;h1 style=&quot;margin-top: 0px;&quot;&gt;Indexing pipeline&lt;/h1&gt;" style="text;html=1;whiteSpace=wrap;overflow=hidden;rounded=0;" parent="1" vertex="1">
          <mxGeometry x="660.5" y="245" width="290" height="50" as="geometry" />
        </mxCell>
        <mxCell id="EBf3UP8crloSJ7-SWJ4h-37" value="" style="shape=image;verticalLabelPosition=bottom;labelBackgroundColor=default;verticalAlign=top;aspect=fixed;imageAspect=0;image=https://ai-infrastructure.org/wp-content/uploads/2023/08/Haystack-Logo_deepset.png;" parent="1" vertex="1">
          <mxGeometry x="650" y="280.49" width="210.5" height="74.51" as="geometry" />
        </mxCell>
        <mxCell id="EBf3UP8crloSJ7-SWJ4h-1" value="" style="shape=cylinder3;whiteSpace=wrap;html=1;boundedLbl=1;backgroundOutline=1;size=15;strokeWidth=2;" parent="1" vertex="1">
          <mxGeometry x="1080" y="130" width="160" height="130" as="geometry" />
        </mxCell>
        <mxCell id="EBf3UP8crloSJ7-SWJ4h-41" value="" style="shape=image;verticalLabelPosition=bottom;labelBackgroundColor=default;verticalAlign=top;aspect=fixed;imageAspect=0;image=https://ai-infrastructure.org/wp-content/uploads/2023/08/Haystack-Logo_deepset.png;" parent="1" vertex="1">
          <mxGeometry x="215.25" y="270" width="169.5" height="60" as="geometry" />
        </mxCell>
        <mxCell id="EBf3UP8crloSJ7-SWJ4h-44" value="" style="shape=image;verticalLabelPosition=bottom;labelBackgroundColor=default;verticalAlign=top;aspect=fixed;imageAspect=0;image=https://huggingface.co/datasets/huggingface/brand-assets/resolve/main/hf-logo-with-title.png;" parent="1" vertex="1">
          <mxGeometry x="629.75" y="85.11000000000001" width="300.5" height="79.89" as="geometry" />
        </mxCell>
        <mxCell id="EBf3UP8crloSJ7-SWJ4h-46" value="" style="shape=image;verticalLabelPosition=bottom;labelBackgroundColor=default;verticalAlign=top;aspect=fixed;imageAspect=0;image=https://upload.wikimedia.org/wikipedia/commons/thumb/f/f4/Elasticsearch_logo.svg/1024px-Elasticsearch_logo.svg.png;" parent="1" vertex="1">
          <mxGeometry x="1094.6399999999999" y="196.28" width="130.72" height="28.72" as="geometry" />
        </mxCell>
      </root>
    </mxGraphModel>
  </diagram>
</mxfile>
